<svg viewBox="0 0 49 70" fill="none" xmlns="http://www.w3.org/2000/svg">
<path d="M24.4701 69.8231L4.52905 64.215L0.0851746 13.7219H48.9148L44.4663 64.2072L24.4701 69.8231Z" fill="#264DE4"/>
<path d="M40.6579 60.9924L44.4593 17.8503H24.5V65.5304L40.6579 60.9924Z" fill="#2965F1"/>
<path d="M10.2726 36.5776L10.8204 42.7704H24.5V36.5776H10.2726Z" fill="#EBEBEB"/>
<path d="M9.17163 24.0435L9.72728 30.2362H24.5V24.0435H9.17163Z" fill="#EBEBEB"/>
<path d="M24.5 52.661L24.4732 52.6682L17.6653 50.8059L17.23 45.8669H11.0935L11.9499 55.5905L24.4719 59.1119L24.5 59.1041V52.661Z" fill="#EBEBEB"/>
<path d="M11.577 0H18.9806V3.13662H14.6732V6.27324H18.981V9.40967H11.577V0Z" fill="black"/>
<path d="M20.4615 0H27.8653V2.72748H23.5577V3.27294H27.8653V9.54618H20.4617V6.682H24.7693V6.13654H20.4613V0H20.4615Z" fill="black"/>
<path d="M29.3462 0H36.75V2.72748H32.4424V3.27294H36.75V9.54618H29.3462V6.682H33.6538V6.13654H29.3464V0H29.3462Z" fill="black"/>
<path d="M38.6884 36.5777L39.7918 24.0435H24.479V30.2362H33.0926L32.5364 36.5777H24.479V42.7705H32.0064L31.2967 50.8021L24.4788 52.6663V59.109L37.0107 55.5906L37.1026 54.5443L38.5393 38.2407L38.6884 36.5777Z" fill="white"/>
</svg>
