<svg viewBox="0 0 50 70" fill="none" xmlns="http://www.w3.org/2000/svg">
<path d="M49.9131 13.7219L45.3738 64.2072L24.9695 69.8231L4.62148 64.215L0.0869141 13.7219H49.9131Z" fill="#E44D26"/>
<path d="M25 65.5304L41.4877 60.9924L45.3666 17.8503H25V65.5304Z" fill="#F16529"/>
<path d="M16.1758 30.2362H25V24.0435H9.35876L9.50798 25.7048L11.0412 42.7705H25V36.5777H16.7459L16.1758 30.2362Z" fill="#EBEBEB"/>
<path d="M17.5817 45.8669H11.3199L12.1938 55.5905L24.9713 59.1119L25 59.1041V52.661L24.9727 52.6682L18.0258 50.8059L17.5817 45.8669Z" fill="#EBEBEB"/>
<path d="M4.72266 0H7.89258V3.10928H10.7924V0H13.9625V9.41567H10.7926V6.26277H7.89277V9.41567H4.72285V0H4.72266Z" fill="black"/>
<path d="M18.1309 3.12246H15.3406V0H24.0934V3.12246H21.3014V9.41567H18.1315V3.12246H18.1313H18.1309Z" fill="black"/>
<path d="M25.4824 0H28.7877L30.8209 3.30842L32.8521 0H36.1588V9.41567H33.0018V4.74875L30.8209 8.09653H30.7662L28.584 4.74875V9.41567H25.4824V0Z" fill="black"/>
<path d="M37.7363 0H40.9072V6.30349H45.3651V9.41567H37.7361V0H37.7363Z" fill="black"/>
<path d="M24.9785 42.7704H32.6596L31.9354 50.802L24.9783 52.6662V59.1089L37.766 55.5905L37.8598 54.5442L39.3258 38.2406L39.4779 36.5776H24.9785V42.7704Z" fill="white"/>
<path d="M24.9785 30.2211V30.2362H40.0455L40.1705 28.8444L40.4549 25.7048L40.6039 24.0435H24.9785V30.2213V30.2211Z" fill="white"/>
</svg>
