<svg viewBox="0 0 128 145" fill="none" xmlns="http://www.w3.org/2000/svg">
<path d="M64 0.0239258L128 36.2264V108.655L64 144.857L0 108.655V36.2264L64 0.0239258Z" fill="white"/>
<path d="M116.576 106.143L66.1255 134.713V112.495L97.57 95.1789L116.576 106.143ZM120.03 103.028V43.3269L101.579 53.9769V92.3769L120.03 103.028V103.028ZM11.23 106.143L61.6815 134.69V112.471L30.237 95.1789L11.23 106.143V106.143ZM7.77649 103.028V43.3269L26.228 53.9769V92.3769L7.77649 103.028V103.028ZM9.92649 39.4629L61.6815 10.1914V31.6864L28.5225 49.9199L28.2565 50.0649L9.92649 39.4624V39.4629ZM117.856 39.4629L66.1255 10.1909V31.6859L99.2605 49.9434L99.526 50.0884L117.856 39.4619V39.4629Z" fill="#8ED6FB"/>
<path d="M61.6815 107.423L30.6715 90.3484V56.5614L61.6815 74.4574V107.423V107.423ZM66.1255 107.423L97.1355 90.3729V56.5614L66.1255 74.4574V107.423V107.423ZM32.7485 52.6489L63.9035 35.5259L95.0335 52.6489L63.9035 70.6174L32.7485 52.6489V52.6489Z" fill="#1C78C0"/>
</svg>
